<svg width="50" height="50" viewBox="0 0 50 50" fill="none" xmlns="http://www.w3.org/2000/svg">
<path d="M20.8708 45.8334H10.4542C9.61251 45.8334 8.85209 45.325 8.52917 44.5479C8.20626 43.7709 8.38542 42.8729 8.97917 42.2771L26.2229 25L8.94376 7.72294C8.34792 7.1271 8.16876 6.23127 8.49167 5.4521C8.81459 4.67502 9.57501 4.16669 10.4167 4.16669H20.8333C21.3854 4.16669 21.9146 4.38752 22.3063 4.7771L28.7333 11.2021C29.5479 12.0146 29.5479 13.3334 28.7333 14.1479C27.9188 14.9625 26.6021 14.9625 25.7875 14.1479L19.9708 8.33335H15.4458L30.6396 23.5271C31.4542 24.3396 31.4542 25.6584 30.6417 26.4729L15.475 41.6667H20.0063L36.6396 25.0021L30.8146 19.1792C30 18.3646 30 17.0479 30.8146 16.2334C31.6292 15.4188 32.9458 15.4188 33.7604 16.2334L41.0563 23.5292C41.8708 24.3417 41.8708 25.6604 41.0583 26.475L22.3458 45.225C21.9542 45.6146 21.4229 45.8334 20.8708 45.8334Z" fill="#0072FF"/>
</svg>
