<svg width="50" height="50" viewBox="0 0 50 50" fill="none" xmlns="http://www.w3.org/2000/svg">
<path d="M39.5458 45.8333H29.1292C28.575 45.8333 28.0437 45.6145 27.6542 45.2229L8.94166 26.4729C8.12916 25.6583 8.12917 24.3416 8.94375 23.527L16.2396 16.2312C17.0542 15.4166 18.3729 15.4166 19.1854 16.2312C20 17.0458 20 18.3645 19.1854 19.177L13.3604 25L29.9958 41.6666H34.525L19.3604 26.4729C18.5479 25.6583 18.5479 24.3416 19.3625 23.527L34.5542 8.33329H30.0292L24.2125 14.15C23.3979 14.9645 22.0813 14.9645 21.2667 14.15C20.4521 13.3354 20.4521 12.0166 21.2667 11.2041L27.6938 4.77913C28.0854 4.38746 28.6125 4.16663 29.1667 4.16663H39.5833C40.425 4.16663 41.1854 4.67496 41.5083 5.45204C41.8312 6.23121 41.6521 7.12704 41.0563 7.72288L23.7771 25.002L41.0208 42.2791C41.6146 42.875 41.7917 43.7708 41.4708 44.55C41.1479 45.325 40.3896 45.8333 39.5458 45.8333Z" fill="#002647"/>
</svg>
