<svg width="16" height="16" viewBox="0 0 16 16" fill="none" xmlns="http://www.w3.org/2000/svg">
<path d="M6.67863 14.6667H3.3453C3.07596 14.6667 2.83263 14.504 2.7293 14.2553C2.62596 14.0067 2.6833 13.7193 2.8733 13.5287L8.3913 8.00001L2.86196 2.47134C2.6713 2.28068 2.61396 1.99401 2.7173 1.74468C2.82063 1.49601 3.06396 1.33334 3.3333 1.33334H6.66663C6.8433 1.33334 7.01263 1.40401 7.13796 1.52868L9.19463 3.58468C9.4553 3.84468 9.4553 4.26668 9.19463 4.52734C8.93396 4.78801 8.51263 4.78801 8.25196 4.52734L6.39063 2.66668H4.94263L9.80463 7.52868C10.0653 7.78868 10.0653 8.21068 9.8053 8.47134L4.95196 13.3333H6.40196L11.7246 8.00068L9.86063 6.13734C9.59996 5.87668 9.59996 5.45534 9.86063 5.19468C10.1213 4.93401 10.5426 4.93401 10.8033 5.19468L13.138 7.52934C13.3986 7.78934 13.3986 8.21134 13.1386 8.47201L7.15063 14.472C7.0253 14.5967 6.8553 14.6667 6.67863 14.6667Z" fill="#002647"/>
</svg>
