<svg width="100" height="100" viewBox="0 0 100 100" fill="none" xmlns="http://www.w3.org/2000/svg">
<path d="M31.7541 91.0625C30.2333 90.4 29.25 88.9 29.25 87.2416V70.975H25C15.8083 70.975 8.33331 63.5 8.33331 54.3083V25C8.33331 15.8083 15.8083 8.33331 25 8.33331H75C84.1916 8.33331 91.6666 15.8083 91.6666 25V33.0208C91.6666 35.3208 89.8041 37.1875 87.5 37.1875C85.1958 37.1875 83.3333 35.3208 83.3333 33.0208V25C83.3333 20.4041 79.5958 16.6666 75 16.6666H25C20.4041 16.6666 16.6666 20.4041 16.6666 25V54.3083C16.6666 58.9041 20.4041 62.6416 25 62.6416H33.4208C35.725 62.6416 37.5875 64.5083 37.5875 66.8083V77.6916L52.6041 63.7583C53.3791 63.0416 54.3916 62.6458 55.4416 62.6458H75.0041C79.6 62.6458 83.3375 58.9083 83.3375 54.3125V47.25C83.3375 44.95 85.2 43.0833 87.5041 43.0833C89.8083 43.0833 91.6708 44.95 91.6708 47.25V54.3125C91.6708 63.5041 84.1958 70.9791 75.0041 70.9791H57.075L36.2583 90.3C34.0083 92.0958 31.7541 91.0625 31.7541 91.0625ZM48.4916 54.5L70.2458 32.75C71.875 31.1208 71.875 28.4875 70.2458 26.8583C68.6166 25.2291 65.9833 25.2291 64.3541 26.8583L45.5458 45.6625L35.65 35.7666C34.0208 34.1375 31.3875 34.1375 29.7583 35.7666C28.1291 37.3958 28.1291 40.0333 29.7583 41.6583L42.6 54.5C43.4125 55.3125 44.4791 55.7208 45.5458 55.7208C46.6125 55.7208 47.675 55.3125 48.4916 54.5Z" fill="#002647"/>
</svg>
