<svg width="100" height="100" viewBox="0 0 100 100" fill="none" xmlns="http://www.w3.org/2000/svg">
<path d="M24.2708 60.8625C21.9666 60.8625 20.1041 62.7292 20.1041 65.0292C20.1041 67.3292 21.9666 69.1958 24.2708 69.1958H38.1458C40.45 69.1958 42.3125 67.3292 42.3125 65.0292C42.3125 62.7292 40.45 60.8625 38.1458 60.8625H24.2708Z" fill="#002647"/>
<path d="M80.2792 17.2416H19.7208C13.4458 17.2416 8.33331 22.35 8.33331 28.6291V71.3708C8.33331 77.65 13.4458 82.7583 19.7208 82.7583H54.9416C57.2458 82.7583 59.1083 80.8916 59.1083 78.5916C59.1083 76.2916 57.2458 74.425 54.9416 74.425H19.7208C18.0375 74.425 16.6666 73.0541 16.6666 71.3708V55.6208H83.3333V71.3708C83.3333 73.0541 81.9625 74.425 80.2792 74.425H69.1542C66.85 74.425 64.9875 76.2916 64.9875 78.5916C64.9875 80.8916 66.85 82.7583 69.1542 82.7583H80.2792C86.5583 82.7583 91.6667 77.65 91.6667 71.3708V28.6291C91.6667 22.35 86.5542 17.2416 80.2792 17.2416ZM19.7208 25.575H80.275C81.9625 25.575 83.3333 26.9458 83.3333 28.6291V32.9125H16.6666V28.6291C16.6666 26.9458 18.0375 25.575 19.7208 25.575ZM16.6666 47.2875V41.2458H83.3333V47.2833H16.6666V47.2875Z" fill="#002647"/>
</svg>
