<svg width="260" height="24" viewBox="0 0 260 24" fill="none" xmlns="http://www.w3.org/2000/svg">
<path d="M11.4951 2.7139C11.7017 2.29536 12.2985 2.29536 12.5051 2.7139L15.1791 8.13203C15.2611 8.29823 15.4196 8.41343 15.6031 8.44008L21.5823 9.30892C22.0442 9.37604 22.2286 9.94366 21.8944 10.2695L17.5678 14.4869C17.4351 14.6162 17.3745 14.8026 17.4058 14.9853L18.4272 20.9404C18.5061 21.4004 18.0233 21.7513 17.6101 21.5341L12.2621 18.7224C12.0981 18.6362 11.9021 18.6362 11.738 18.7224L6.39002 21.5341C5.97689 21.7513 5.49404 21.4004 5.57294 20.9404L6.59432 14.9853C6.62565 14.8026 6.56509 14.6162 6.43236 14.4869L2.10573 10.2695C1.7715 9.94366 1.95594 9.37604 2.41783 9.30892L8.39708 8.44008C8.5805 8.41343 8.73906 8.29823 8.82109 8.13203L11.4951 2.7139Z" stroke="white" stroke-width="2" stroke-linejoin="round"/>
<path d="M70.4951 2.7139C70.7017 2.29536 71.2985 2.29536 71.5051 2.7139L74.1791 8.13203C74.2611 8.29823 74.4196 8.41343 74.6031 8.44008L80.5823 9.30892C81.0442 9.37604 81.2286 9.94366 80.8944 10.2695L76.5678 14.4869C76.4351 14.6162 76.3745 14.8026 76.4058 14.9853L77.4272 20.9404C77.5061 21.4004 77.0233 21.7513 76.6101 21.5341L71.2621 18.7224C71.0981 18.6362 70.9021 18.6362 70.738 18.7224L65.39 21.5341C64.9769 21.7513 64.494 21.4004 64.5729 20.9404L65.5943 14.9853C65.6256 14.8026 65.5651 14.6162 65.4324 14.4869L61.1057 10.2695C60.7715 9.94366 60.9559 9.37604 61.4178 9.30892L67.3971 8.44008C67.5805 8.41343 67.7391 8.29823 67.8211 8.13203L70.4951 2.7139Z" stroke="white" stroke-width="2" stroke-linejoin="round"/>
<path d="M129.495 2.7139C129.702 2.29536 130.298 2.29536 130.505 2.7139L133.179 8.13203C133.261 8.29823 133.42 8.41343 133.603 8.44008L139.582 9.30892C140.044 9.37604 140.229 9.94366 139.894 10.2695L135.568 14.4869C135.435 14.6162 135.374 14.8026 135.406 14.9853L136.427 20.9404C136.506 21.4004 136.023 21.7513 135.61 21.5341L130.262 18.7224C130.098 18.6362 129.902 18.6362 129.738 18.7224L124.39 21.5341C123.977 21.7513 123.494 21.4004 123.573 20.9404L124.594 14.9853C124.626 14.8026 124.565 14.6162 124.432 14.4869L120.106 10.2695C119.772 9.94366 119.956 9.37604 120.418 9.30892L126.397 8.44008C126.581 8.41343 126.739 8.29823 126.821 8.13203L129.495 2.7139Z" stroke="white" stroke-width="2" stroke-linejoin="round"/>
<path d="M188.495 2.7139C188.702 2.29536 189.298 2.29536 189.505 2.7139L192.179 8.13203C192.261 8.29823 192.42 8.41343 192.603 8.44008L198.582 9.30892C199.044 9.37604 199.229 9.94366 198.894 10.2695L194.568 14.4869C194.435 14.6162 194.374 14.8026 194.406 14.9853L195.427 20.9404C195.506 21.4004 195.023 21.7513 194.61 21.5341L189.262 18.7224C189.098 18.6362 188.902 18.6362 188.738 18.7224L183.39 21.5341C182.977 21.7513 182.494 21.4004 182.573 20.9404L183.594 14.9853C183.626 14.8026 183.565 14.6162 183.432 14.4869L179.106 10.2695C178.772 9.94366 178.956 9.37604 179.418 9.30892L185.397 8.44008C185.581 8.41343 185.739 8.29823 185.821 8.13203L188.495 2.7139Z" stroke="white" stroke-width="2" stroke-linejoin="round"/>
<path d="M247.495 2.7139C247.702 2.29536 248.298 2.29536 248.505 2.7139L251.179 8.13203C251.261 8.29823 251.42 8.41343 251.603 8.44008L257.582 9.30892C258.044 9.37604 258.229 9.94366 257.894 10.2695L253.568 14.4869C253.435 14.6162 253.374 14.8026 253.406 14.9853L254.427 20.9404C254.506 21.4004 254.023 21.7513 253.61 21.5341L248.262 18.7224C248.098 18.6362 247.902 18.6362 247.738 18.7224L242.39 21.5341C241.977 21.7513 241.494 21.4004 241.573 20.9404L242.594 14.9853C242.626 14.8026 242.565 14.6162 242.432 14.4869L238.106 10.2695C237.772 9.94366 237.956 9.37604 238.418 9.30892L244.397 8.44008C244.581 8.41343 244.739 8.29823 244.821 8.13203L247.495 2.7139Z" stroke="white" stroke-width="2" stroke-linejoin="round"/>
</svg>
