<svg width="100" height="100" viewBox="0 0 100 100" fill="none" xmlns="http://www.w3.org/2000/svg">
<path d="M70.0334 37.5L91.725 15.4208C92.9042 14.225 93.2459 12.4375 92.5959 10.8916C91.9459 9.34165 90.4334 8.33331 88.7542 8.33331H25C22.7 8.33331 20.8334 10.2 20.8334 12.5V28.8541C20.8334 31.1541 22.7 33.0208 25 33.0208C27.3 33.0208 29.1667 31.1541 29.1667 28.8541V16.6666H37.55V83.3333H29.1667V43.0833C29.1667 40.7833 27.3 38.9166 25 38.9166C22.7 38.9166 20.8334 40.7833 20.8334 43.0833V83.3333H12.5C10.2 83.3333 8.33337 85.2 8.33337 87.5C8.33337 89.8 10.2 91.6667 12.5 91.6667H54.1125C56.4167 91.6667 58.2792 89.8 58.2792 87.5C58.2792 85.2 56.4167 83.3333 54.1125 83.3333H45.8792V66.6667H88.75C90.4292 66.6667 91.9459 65.6583 92.5917 64.1125C93.2417 62.5625 92.9 60.7792 91.7209 59.5833L70.0334 37.5ZM45.8834 58.3333V16.6666H78.8209L61.2209 34.5791C59.625 36.2 59.625 38.8 61.2209 40.4166L78.8209 58.3333H45.8834Z" fill="#002647"/>
</svg>
