<svg width="100" height="100" viewBox="0 0 100 100" fill="none" xmlns="http://www.w3.org/2000/svg">
<path d="M79.7417 33.7667C80.4458 31.7625 80.9042 29.6375 80.9042 27.3958C80.9042 16.7 72.2042 8 61.5083 8C50.8167 8 42.1167 16.7 42.1167 27.3917C42.1167 29.1417 42.425 30.8125 42.8625 32.425C41.2458 31.9917 39.5792 31.6833 37.825 31.6833C27.1333 31.6833 18.4333 40.3833 18.4333 51.075C18.4333 53.3208 18.8917 55.4417 19.5958 57.4458C13.1167 58.025 8 63.425 8 70.0542V78.6125C8 85.625 13.7083 91.3333 20.7208 91.3333H24.5833C26.8833 91.3333 28.75 89.4708 28.75 87.1667C28.75 84.8625 26.8833 83 24.5833 83H20.7208C18.3 83 16.3333 81.0292 16.3333 78.6083V70.05C16.3333 67.6333 18.3 65.6625 20.7208 65.6625H25.1917C28.5958 68.6125 32.9792 70.4625 37.825 70.4625C42.6708 70.4625 47.0583 68.6125 50.4625 65.6625H54.9333C57.3542 65.6625 59.3208 67.6333 59.3208 70.05V78.6083C59.3208 81.0292 57.3542 83 54.9333 83H38.8125C36.5125 83 34.6458 84.8625 34.6458 87.1667C34.6458 89.4708 36.5125 91.3333 38.8125 91.3333H54.9333C61.9458 91.3333 67.6542 85.625 67.6542 78.6083V70.05C67.6542 69.2292 67.5625 68.425 67.4125 67.65H78.6167C85.6292 67.65 91.3375 61.9417 91.3375 54.925V46.3667C91.3333 39.7458 86.2167 34.3458 79.7417 33.7667ZM61.5083 16.3333C67.6083 16.3333 72.5708 21.2958 72.5708 27.3917C72.5708 33.4875 67.6083 38.45 61.5083 38.45C55.4125 38.45 50.45 33.4875 50.45 27.3917C50.45 21.2958 55.4083 16.3333 61.5083 16.3333ZM26.7667 51.075C26.7667 44.9792 31.7292 40.0167 37.825 40.0167C43.925 40.0167 48.8875 44.9792 48.8875 51.075C48.8875 57.175 43.925 62.1333 37.825 62.1333C31.7292 62.1333 26.7667 57.175 26.7667 51.075ZM83 54.9292C83 57.35 81.0333 59.3208 78.6125 59.3208H61.6875C60.0292 58.2708 58.1125 57.6333 56.0542 57.45C56.7583 55.4458 57.2167 53.3208 57.2167 51.0792C57.2167 49.3292 56.9083 47.6625 56.4708 46.0458C58.0875 46.4792 59.75 46.7917 61.5042 46.7917C66.3542 46.7917 70.7375 44.9417 74.1417 41.9917H78.6125C81.0333 41.9917 83 43.9583 83 46.3792V54.9292Z" fill="#002647"/>
</svg>
