<svg width="24" height="24" viewBox="0 0 24 24" fill="none" xmlns="http://www.w3.org/2000/svg">
<path d="M19 4.28198H5C3.346 4.28198 2 5.62798 2 7.28198V9.86598C2 10.419 2.447 10.866 3 10.866C3.553 10.866 4 10.419 4 9.86598V7.40098L8.287 11.144L4 16.206V13.281C4 12.728 3.553 12.281 3 12.281C2.447 12.281 2 12.728 2 13.281V16.718C2 18.372 3.346 19.718 5 19.718H19C20.654 19.718 22 18.372 22 16.718V7.28198C22 5.62798 20.654 4.28198 19 4.28198ZM15.73 11.127L20 7.39498V16.153L15.73 11.127ZM5.759 6.28198H18.234L12 11.731L5.759 6.28198ZM11.342 13.813C11.53 13.978 11.766 14.06 12 14.06C12.234 14.06 12.47 13.978 12.658 13.813L14.225 12.443L18.705 17.718H5.34L9.793 12.46L11.342 13.813Z" fill="#0072FF"/>
</svg>
