<svg width="36" height="28" viewBox="0 0 36 28" fill="none" xmlns="http://www.w3.org/2000/svg">
<path d="M30.25 0.49353H5.75C2.8555 0.49353 0.5 2.84903 0.5 5.74353V10.2655C0.5 11.2333 1.28225 12.0155 2.25 12.0155C3.21775 12.0155 4 11.2333 4 10.2655V5.95178L11.5022 12.502L4 21.3605V16.2418C4 15.274 3.21775 14.4918 2.25 14.4918C1.28225 14.4918 0.5 15.274 0.5 16.2418V22.2565C0.5 25.151 2.8555 27.5065 5.75 27.5065H30.25C33.1445 27.5065 35.5 25.151 35.5 22.2565V5.74353C35.5 2.84903 33.1445 0.49353 30.25 0.49353ZM24.5275 12.4723L32 5.94128V21.2678L24.5275 12.4723ZM7.07825 3.99353H28.9095L18 13.5293L7.07825 3.99353ZM16.8485 17.1728C17.1775 17.4615 17.5905 17.605 18 17.605C18.4095 17.605 18.8225 17.4615 19.1515 17.1728L21.8938 14.7753L29.7337 24.0065H6.345L14.1378 14.805L16.8485 17.1728Z" fill="white"/>
</svg>
