<svg width="20" height="20" viewBox="0 0 20 20" fill="none" xmlns="http://www.w3.org/2000/svg">
<path d="M19 9.301H11.699C11.147 9.301 10.699 8.853 10.699 8.301V1C10.699 0.448 11.147 0 11.699 0H19C19.552 0 20 0.448 20 1V8.301C20 8.854 19.552 9.301 19 9.301ZM12.699 7.301H18V2H12.699V7.301ZM8.301 20H1C0.448 20 0 19.552 0 19V11.698C0 11.146 0.448 10.698 1 10.698H8.301C8.853 10.698 9.301 11.146 9.301 11.698V19C9.301 19.552 8.854 20 8.301 20ZM2 18H7.301V12.698H2V18ZM19 20H11.699C11.147 20 10.699 19.552 10.699 19V11.698C10.699 11.146 11.147 10.698 11.699 10.698H19C19.552 10.698 20 11.146 20 11.698V19C20 19.552 19.552 20 19 20ZM12.699 18H18V12.698H12.699V18ZM9.301 8.301V1C9.301 0.448 8.853 0 8.301 0H1C0.448 0 0 0.448 0 1V2.943C0 3.495 0.448 3.943 1 3.943C1.552 3.943 2 3.495 2 2.943V2H7.301V7.301H2V6.358C2 5.806 1.552 5.358 1 5.358C0.448 5.358 0 5.806 0 6.358V8.301C0 8.853 0.448 9.301 1 9.301H8.301C8.854 9.301 9.301 8.854 9.301 8.301Z" fill="#FF4D00"/>
</svg>
