<svg width="100" height="100" viewBox="0 0 100 100" fill="none" xmlns="http://www.w3.org/2000/svg">
<path d="M9.64164 90.3583C8.5333 89.25 8.14164 87.6208 8.62497 86.1291L15.3166 65.4C8.15414 50.1417 11.2458 32.1666 23.2708 20.1417C38.8708 4.54165 64.2583 4.54165 79.8583 20.1417C83.0833 23.3667 85.7333 27.1542 87.7333 31.3875C88.7125 33.4708 87.8208 35.9542 85.7416 36.9333C83.6583 37.925 81.1708 37.0208 80.1958 34.9416C78.6083 31.575 76.5125 28.5792 73.9666 26.0292C61.6125 13.6792 41.5166 13.6792 29.1625 26.0292C19.3083 35.8833 17.0333 50.7916 23.4958 63.1291C24.0166 64.1166 24.1125 65.2791 23.7666 66.3416L19.0541 80.9333L33.6458 76.2208C34.7125 75.8708 35.8708 75.9708 36.8583 76.4916C49.2041 82.9583 64.1083 80.6833 73.9625 70.825C80.2625 64.525 83.5333 56.1208 83.1791 47.1542C83.0875 44.85 84.875 42.9125 87.175 42.825C89.4541 42.675 91.4166 44.5208 91.5041 46.8208C91.9458 57.975 87.7 68.8708 79.8541 76.7166C67.8291 88.75 49.85 91.8291 34.5916 84.6708L13.8708 91.375C11.2791 92.2125 9.64164 90.3583 9.64164 90.3583ZM62.3083 65.3666V54.5083C65.925 51.4625 68.025 47.0083 68.025 42.2083C68.025 33.2875 60.7666 26.0292 51.8458 26.0292C42.925 26.0292 35.6666 33.2875 35.6666 42.2083C35.6666 47.0083 37.7666 51.4625 41.3833 54.5083V65.3666C41.3833 67.6708 43.2458 69.5333 45.55 69.5333H58.1375C60.4458 69.5333 62.3083 67.6666 62.3083 65.3666ZM49.7208 52.3917C49.7208 50.9458 48.9708 49.6083 47.7458 48.8458C45.4 47.3958 44.0041 44.9166 44.0041 42.2C44.0041 37.875 47.525 34.3541 51.85 34.3541C56.175 34.3541 59.6958 37.875 59.6958 42.2C59.6958 44.9125 58.2958 47.3958 55.9541 48.8458C54.7291 49.6083 53.9791 50.9458 53.9791 52.3917V61.1958H49.725V52.3917H49.7208Z" fill="#002647"/>
</svg>
