<svg width="34" height="34" viewBox="0 0 34 34" fill="none" xmlns="http://www.w3.org/2000/svg">
<path d="M20.2517 33.6683C16.6617 33.6733 15.4083 30.8633 15.4083 30.8633L11.645 22.3583L3.27668 18.67C1.36668 17.7216 0.243347 15.8 0.345013 13.7433C0.453347 11.815 1.68501 10.13 3.48335 9.44831L12.4683 6.04831C13.3233 5.72665 14.29 6.15665 14.6167 7.01831C14.9417 7.87998 14.5083 8.84165 13.6467 9.16831L4.66501 12.565C4.09835 12.78 3.71001 13.3133 3.67501 13.9216C3.64001 14.6466 4.03835 15.33 4.69168 15.655L12.5367 19.1116L18.1883 13.4616C18.84 12.81 19.8933 12.81 20.545 13.4616C21.1967 14.1133 21.1967 15.1683 20.545 15.8183L14.895 21.4666L18.415 29.43C18.7 29.9817 19.4067 30.3683 20.0867 30.3383C20.685 30.3067 21.2117 29.9217 21.42 29.355L30.26 6.02331C30.5783 4.95665 29.8667 4.20831 29.8583 4.20165C29.005 3.42998 28.1617 3.67831 27.9983 3.73665L18.9683 7.15331C18.1117 7.47498 17.145 7.04665 16.82 6.18331C16.495 5.32165 16.9283 4.35998 17.79 4.03331L26.8 0.624981C27.8017 0.204981 30.1233 -0.0616862 32.1267 1.75998C32.9833 2.57331 34.1767 4.57498 33.4133 7.09665L24.5433 30.5217C23.2767 33.6683 20.2517 33.6683 20.2517 33.6683Z" fill="white"/>
</svg>
