<svg width="34" height="34" viewBox="0 0 34 34" fill="none" xmlns="http://www.w3.org/2000/svg">
<path d="M0 34L2.40157 25.2698C0.920184 22.7147 0.140981 19.8163 0.142069 16.8469C0.145879 7.55757 7.73978 0 17.0712 0C21.5994 0.00189652 25.8498 1.75643 29.0461 4.94094C32.2421 8.12544 34.0016 12.3584 34 16.8605C33.9959 26.1496 26.4009 33.7082 17.0712 33.7082C17.0706 33.7082 17.0714 33.7082 17.0712 33.7082H17.0638C14.2306 33.7071 11.4469 32.9997 8.97431 31.6573L0 34ZM9.38991 28.6074L9.90402 28.9106C12.0639 30.1867 14.5403 30.8616 17.0657 30.8629H17.0712C24.8262 30.8629 31.1382 24.5806 31.1415 16.8594C31.1428 13.1176 29.6808 9.59902 27.0242 6.95232C24.3673 4.30561 20.8349 2.8472 17.0763 2.84557C9.31506 2.84557 3.00332 9.12707 3.00033 16.848C2.99924 19.4939 3.74279 22.0704 5.15151 24.3002L5.48627 24.8301L4.06449 29.9973L9.38991 28.6074Z" fill="white"/>
<path fill-rule="evenodd" clip-rule="evenodd" d="M12.8401 9.80382C12.5233 9.10265 12.1896 9.08857 11.888 9.07637C11.6415 9.06581 11.3592 9.06635 11.0775 9.06635C10.7956 9.06635 10.3373 9.17201 9.94971 9.59331C9.56188 10.0146 8.46887 11.0333 8.46887 13.1051C8.46887 15.1772 9.98482 17.1791 10.1963 17.4603C10.4078 17.7413 13.1226 22.1288 17.4219 23.8167C20.9951 25.2195 21.7221 24.9405 22.4977 24.8703C23.2734 24.8001 25.0003 23.8516 25.3527 22.8684C25.7055 21.8852 25.7055 21.0426 25.5996 20.8662C25.4937 20.6909 25.2118 20.5855 24.7888 20.375C24.3659 20.1645 22.2863 19.1455 21.8984 19.0052C21.5106 18.8646 21.2287 18.7947 20.9467 19.2162C20.6645 19.6373 19.8545 20.5855 19.6077 20.8662C19.3608 21.1477 19.114 21.1829 18.691 20.9722C18.2681 20.7611 16.9056 20.3168 15.2895 18.8822C14.0321 17.7662 13.183 16.3877 12.9361 15.9662C12.6896 15.5451 12.9321 15.3371 13.122 15.107C13.4641 14.6928 14.0381 13.948 14.1791 13.6673C14.3201 13.3861 14.2496 13.1403 14.144 12.9296C14.0381 12.719 13.2159 10.6367 12.8401 9.80382V9.80382Z" fill="white"/>
</svg>
