<svg width="50" height="50" viewBox="0 0 50 50" fill="none" xmlns="http://www.w3.org/2000/svg">
<path d="M20.8708 45.8333H10.4541C9.61245 45.8333 8.85203 45.325 8.52911 44.5479C8.2062 43.7708 8.38536 42.8729 8.97911 42.277L26.2229 25L8.9437 7.72288C8.34786 7.12704 8.1687 6.23121 8.49161 5.45204C8.81453 4.67496 9.57495 4.16663 10.4166 4.16663H20.8333C21.3854 4.16663 21.9145 4.38746 22.3062 4.77704L28.7333 11.202C29.5479 12.0145 29.5479 13.3333 28.7333 14.1479C27.9187 14.9625 26.602 14.9625 25.7874 14.1479L19.9708 8.33329H15.4458L30.6395 23.527C31.4541 24.3395 31.4541 25.6583 30.6416 26.4729L15.4749 41.6666H20.0062L36.6395 25.002L30.8145 19.1791C29.9999 18.3645 29.9999 17.0479 30.8145 16.2333C31.6291 15.4187 32.9458 15.4187 33.7604 16.2333L41.0562 23.5291C41.8708 24.3416 41.8708 25.6604 41.0583 26.475L22.3458 45.225C21.9541 45.6145 21.4229 45.8333 20.8708 45.8333Z" fill="#002647"/>
</svg>
