<svg width="24" height="24" viewBox="0 0 24 24" fill="none" xmlns="http://www.w3.org/2000/svg">
<path d="M16.109 21.95C15.152 21.95 14.195 21.586 13.466 20.857L6.33102 13.721C5.94002 13.33 5.94002 12.697 6.33102 12.307C6.72202 11.916 7.35402 11.916 7.74502 12.307L14.88 19.443C15.559 20.12 16.66 20.119 17.337 19.443L19.532 17.247L17.147 14.86L14.89 15.91C14.51 16.088 14.057 16.008 13.761 15.71L8.28902 10.236C7.99202 9.93897 7.91202 9.48797 8.08902 9.10697L9.13802 6.85097L6.75502 4.46597L4.55802 6.66197C3.88102 7.33897 3.88102 8.44097 4.55802 9.11897L5.33202 9.89297C5.72202 10.284 5.72202 10.917 5.33202 11.308C4.94102 11.698 4.30802 11.698 3.91702 11.308L3.14402 10.534C1.68702 9.07697 1.68702 6.70597 3.14402 5.24897L6.04802 2.34597C6.43902 1.95597 7.07102 1.95597 7.46202 2.34597L11.049 5.93397C11.346 6.23097 11.426 6.68197 11.249 7.06297L10.2 9.31797L14.683 13.802L16.94 12.752C17.32 12.574 17.773 12.654 18.069 12.952L21.655 16.54C22.046 16.931 22.046 17.563 21.655 17.954L18.753 20.857C18.023 21.586 17.066 21.95 16.109 21.95Z" fill="#0072FF"/>
</svg>
