<svg width="100" height="100" viewBox="0 0 100 100" fill="none" xmlns="http://www.w3.org/2000/svg">
<path d="M10.2125 55.875L36.7583 82.4167C36.7583 82.4167 39.3833 84.9709 42.65 82.4167L89.7875 35.2792C91.4167 33.65 91.4167 31.0125 89.7875 29.3875L77.9875 17.5875C76.425 16.025 73.6583 16.025 72.0958 17.5875L67.0417 22.6459C65.4125 24.275 65.4125 26.9125 67.0417 28.5417C68.6708 30.1667 71.3042 30.1667 72.9333 28.5375L75.0417 26.4292L80.95 32.3375L39.7083 73.5792L33.7958 67.6667L62.8792 38.5875C64.5083 36.9625 64.5083 34.325 62.8792 32.6959C61.25 31.0667 58.6167 31.0667 56.9875 32.6959L39.7 49.9792L27.9042 38.1875C26.275 36.5584 23.6417 36.5625 22.0125 38.1875L10.2125 49.9792C10.2125 49.9792 7.40417 52.2875 10.2125 55.875ZM24.9583 47.025L33.8083 55.875L27.9 61.7792L19.05 52.925L24.9583 47.025Z" fill="#002647"/>
</svg>
