<svg width="260" height="24" viewBox="0 0 260 24" fill="none" xmlns="http://www.w3.org/2000/svg">
<path d="M11.495 2.71381C11.7016 2.29527 12.2984 2.29527 12.505 2.71381L15.179 8.13194C15.261 8.29814 15.4196 8.41334 15.603 8.43999L21.5823 9.30883C22.0441 9.37595 22.2286 9.94357 21.8944 10.2694L17.5677 14.4868C17.435 14.6162 17.3744 14.8026 17.4058 14.9852L18.4271 20.9403C18.506 21.4004 18.0232 21.7512 17.6101 21.534L12.2621 18.7224C12.098 18.6361 11.902 18.6361 11.738 18.7224L6.38995 21.534C5.97683 21.7512 5.49398 21.4004 5.57288 20.9403L6.59426 14.9852C6.62559 14.8026 6.56502 14.6162 6.4323 14.4868L2.10567 10.2694C1.77144 9.94357 1.95588 9.37595 2.41777 9.30883L8.39702 8.43999C8.58044 8.41334 8.739 8.29814 8.82103 8.13194L11.495 2.71381Z" stroke="#002647" stroke-width="2" stroke-linejoin="round"/>
<path d="M70.495 2.71381C70.7016 2.29527 71.2984 2.29527 71.505 2.71381L74.179 8.13194C74.261 8.29814 74.4196 8.41334 74.603 8.43999L80.5823 9.30883C81.0441 9.37595 81.2286 9.94357 80.8944 10.2694L76.5677 14.4868C76.435 14.6162 76.3744 14.8026 76.4058 14.9852L77.4271 20.9403C77.506 21.4004 77.0232 21.7512 76.6101 21.534L71.2621 18.7224C71.098 18.6361 70.902 18.6361 70.738 18.7224L65.39 21.534C64.9768 21.7512 64.494 21.4004 64.5729 20.9403L65.5943 14.9852C65.6256 14.8026 65.565 14.6162 65.4323 14.4868L61.1057 10.2694C60.7714 9.94357 60.9559 9.37595 61.4178 9.30883L67.397 8.43999C67.5804 8.41334 67.739 8.29814 67.821 8.13194L70.495 2.71381Z" stroke="#002647" stroke-width="2" stroke-linejoin="round"/>
<path d="M129.495 2.71381C129.702 2.29527 130.298 2.29527 130.505 2.71381L133.179 8.13194C133.261 8.29814 133.42 8.41334 133.603 8.43999L139.582 9.30883C140.044 9.37595 140.229 9.94357 139.894 10.2694L135.568 14.4868C135.435 14.6162 135.374 14.8026 135.406 14.9852L136.427 20.9403C136.506 21.4004 136.023 21.7512 135.61 21.534L130.262 18.7224C130.098 18.6361 129.902 18.6361 129.738 18.7224L124.39 21.534C123.977 21.7512 123.494 21.4004 123.573 20.9403L124.594 14.9852C124.626 14.8026 124.565 14.6162 124.432 14.4868L120.106 10.2694C119.771 9.94357 119.956 9.37595 120.418 9.30883L126.397 8.43999C126.58 8.41334 126.739 8.29814 126.821 8.13194L129.495 2.71381Z" stroke="#002647" stroke-width="2" stroke-linejoin="round"/>
<path d="M188.495 2.71381C188.702 2.29527 189.298 2.29527 189.505 2.71381L192.179 8.13194C192.261 8.29814 192.42 8.41334 192.603 8.43999L198.582 9.30883C199.044 9.37595 199.229 9.94357 198.894 10.2694L194.568 14.4868C194.435 14.6162 194.374 14.8026 194.406 14.9852L195.427 20.9403C195.506 21.4004 195.023 21.7512 194.61 21.534L189.262 18.7224C189.098 18.6361 188.902 18.6361 188.738 18.7224L183.39 21.534C182.977 21.7512 182.494 21.4004 182.573 20.9403L183.594 14.9852C183.626 14.8026 183.565 14.6162 183.432 14.4868L179.106 10.2694C178.771 9.94357 178.956 9.37595 179.418 9.30883L185.397 8.43999C185.58 8.41334 185.739 8.29814 185.821 8.13194L188.495 2.71381Z" stroke="#002647" stroke-width="2" stroke-linejoin="round"/>
<path d="M247.495 2.71381C247.702 2.29527 248.298 2.29527 248.505 2.71381L251.179 8.13194C251.261 8.29814 251.42 8.41334 251.603 8.43999L257.582 9.30883C258.044 9.37595 258.229 9.94357 257.894 10.2694L253.568 14.4868C253.435 14.6162 253.374 14.8026 253.406 14.9852L254.427 20.9403C254.506 21.4004 254.023 21.7512 253.61 21.534L248.262 18.7224C248.098 18.6361 247.902 18.6361 247.738 18.7224L242.39 21.534C241.977 21.7512 241.494 21.4004 241.573 20.9403L242.594 14.9852C242.626 14.8026 242.565 14.6162 242.432 14.4868L238.106 10.2694C237.771 9.94357 237.956 9.37595 238.418 9.30883L244.397 8.43999C244.58 8.41334 244.739 8.29814 244.821 8.13194L247.495 2.71381Z" stroke="#002647" stroke-width="2" stroke-linejoin="round"/>
</svg>
