<svg width="100" height="100" viewBox="0 0 100 100" fill="none" xmlns="http://www.w3.org/2000/svg">
<path d="M28.8333 22.5916C30.6333 21.1541 30.8667 18.5083 29.4083 16.7291C27.9458 14.9458 25.3208 14.6916 23.5458 16.1541C23.5458 16.1541 14.6333 22.5375 11.6167 35.8041C11.6167 35.8041 8.76666 44.9333 14.0917 57.2541L8.53749 74.5458C8.05832 76.0333 8.45416 77.6666 9.56249 78.7708C9.56249 78.7708 11.3417 80.5833 13.7917 79.7833L29.8625 74.5583C31.075 76.3958 32.4042 78.1583 33.9792 79.7333C43.6208 89.3708 57.9958 91.9083 70.2542 86.3083L86.2167 91.4625C86.2167 91.4625 88.8292 92.15 90.4417 90.4416C91.5167 89.3041 91.9417 87.7041 91.4625 86.2125L86.3083 70.2541C86.3083 70.2541 91.9917 60.0208 87.5 46.3958C87.5 46.3958 85.225 38.7958 78.4042 32.7833C76.775 27.4 73.8375 22.4666 69.7375 18.3875C61.4458 10.125 49.6333 6.64997 38.1458 9.12497C35.8958 9.6083 34.4625 11.8208 34.9458 14.075C35.4292 16.3208 37.6375 17.7708 39.8958 17.275C48.6125 15.3958 57.5708 18.0333 63.8583 24.3041C68.8083 29.2291 71.5375 35.7875 71.55 42.7708C71.5625 49.7583 68.8542 56.3291 63.9208 61.275C55.8 69.425 43.5 71.3208 33.3083 65.9958C32.3167 65.4791 31.1583 65.3875 30.0917 65.7291L18.9583 69.3416L22.5375 58.2C22.8792 57.1333 22.7542 55.9916 22.2583 54.9875C22.2583 54.9875 17.7083 46.2708 19.7917 37.4166C19.7917 37.4125 21.1958 28.6916 28.8333 22.5916ZM71.2167 77.8666C70.1583 77.5125 69 77.6166 68.0042 78.1375C60.3125 82.175 51.3333 81.65 44.2167 77.2C53.5667 77.5375 62.8667 74.1333 69.825 67.15C74.925 62.0291 78.1917 55.5875 79.3708 48.6C81.6625 54.8125 81.375 61.825 78.1375 68C77.6167 68.9875 77.5208 70.15 77.8625 71.2125L81.0333 81.025L71.2167 77.8666ZM62.1125 36.9791C62.1125 39.2833 60.2458 41.1458 57.9458 41.1458H32.175C29.875 41.1458 28.0083 39.2833 28.0083 36.9791C28.0083 34.675 29.875 32.8125 32.175 32.8125H57.9458C60.2458 32.8125 62.1125 34.675 62.1125 36.9791ZM62.1125 49.5375C62.1125 51.8416 60.2458 53.7041 57.9458 53.7041H32.175C29.875 53.7041 28.0083 51.8416 28.0083 49.5375C28.0083 47.2333 29.875 45.3708 32.175 45.3708H57.9458C60.2458 45.3708 62.1125 47.2333 62.1125 49.5375Z" fill="#002647"/>
</svg>
