<svg width="100" height="100" viewBox="0 0 100 100" fill="none" xmlns="http://www.w3.org/2000/svg">
<path d="M35.8958 40.05H49.7C52 40.05 53.8666 38.1833 53.8666 35.8833C53.8666 33.5833 52 31.7167 49.7 31.7167H35.8958C33.5958 31.7167 31.7291 33.5833 31.7291 35.8833C31.7291 38.1833 33.5916 40.05 35.8958 40.05Z" fill="#002647"/>
<path d="M83.7875 85.1083C92.3666 76.9458 91.6667 67.1 91.6667 67.1C91.6667 60.875 89.3208 55.2 85.4875 50.8667L85.525 25.0083C85.525 15.8167 78.05 8.34167 68.8583 8.34167H31.2166C22.025 8.34167 14.55 15.8167 14.55 25.0042L14.5375 33.3667C14.5333 35.6708 16.4 37.5375 18.7041 37.5375C21.0041 37.5375 22.8666 35.675 22.8708 33.375L22.8833 25C22.8833 20.4042 26.6208 16.6667 31.2166 16.6667H59.6916V31.9792C59.6916 34.2792 61.5583 36.1458 63.8583 36.1458H77.175L77.1625 44.7042C69.6083 41.0792 59.4833 42.1458 52.8916 47.0917H35.8958C30.45 47.1167 30.4458 55.4 35.8958 55.425H45.4875C44.3083 57.5958 43.4625 59.9708 42.9833 62.4708H35.8958C33.5958 62.4708 31.7291 64.3375 31.7291 66.6375C31.7291 68.9375 33.5958 70.8042 35.8958 70.8042H42.8416C43.5666 75.5667 45.6541 79.875 48.7083 83.3292H31.1416C26.5458 83.3292 22.8083 79.5917 22.8083 75L22.85 47.5833C22.8541 45.2792 20.9875 43.4125 18.6833 43.4125C16.3833 43.4125 14.5208 45.275 14.5166 47.575L14.475 75C14.475 84.1917 21.95 91.6667 31.1416 91.6667H68.7875C78.125 91.2333 83.7875 85.1083 83.7875 85.1083ZM68.025 27.8167V16.6708C72.8958 16.2833 77.2166 20.0667 77.1916 25L77.1875 27.8208H68.025V27.8167ZM67.1 83.3333C45.6458 82.65 45.65 51.5417 67.1 50.8667C88.5541 51.5458 88.5458 82.6542 67.1 83.3333Z" fill="#002647"/>
<path d="M72.05 60.3292L64.6542 67.7333L61.4958 64.5833C59.8666 62.9542 57.225 62.9625 55.6042 64.5917C53.9792 66.2208 53.9833 68.8583 55.6125 70.4833L61.7167 76.575C62.5292 77.3875 63.5958 77.7917 64.6583 77.7917C65.725 77.7917 66.7916 77.3833 67.6083 76.5708L77.95 66.225C79.575 64.5958 79.575 61.9583 77.95 60.3292C76.3167 58.7042 73.6792 58.7042 72.05 60.3292Z" fill="#002647"/>
</svg>
