<svg width="100" height="100" viewBox="0 0 100 100" fill="none" xmlns="http://www.w3.org/2000/svg">
<path d="M58.1292 91.6708C49.1542 91.6833 46.0208 84.6583 46.0208 84.6583L36.6125 63.3958L15.6917 54.175C10.9167 51.8041 8.10834 47 8.3625 41.8583C8.63334 37.0375 11.7125 32.825 16.2083 31.1208L38.6708 22.6208C40.8083 21.8166 43.225 22.8916 44.0417 25.0458C44.8542 27.2 43.7708 29.6041 41.6167 30.4208L19.1625 38.9125C17.7458 39.45 16.775 40.7833 16.6875 42.3041C16.6 44.1166 17.5958 45.825 19.2292 46.6375L38.8417 55.2791L52.9708 41.1541C54.6 39.525 57.2333 39.525 58.8625 41.1541C60.4917 42.7833 60.4917 45.4208 58.8625 47.0458L44.7375 61.1666L53.5375 81.075C54.25 82.4542 56.0167 83.4208 57.7167 83.3458C59.2125 83.2667 60.5292 82.3042 61.05 80.8875L83.15 22.5583C83.9458 19.8916 82.1667 18.0208 82.1458 18.0041C80.0125 16.075 77.9042 16.6958 77.4958 16.8416L54.9208 25.3833C52.7792 26.1875 50.3625 25.1166 49.55 22.9583C48.7375 20.8041 49.8208 18.4 51.975 17.5833L74.5 9.06248C77.0042 8.01248 82.8083 7.34582 87.8167 11.9C89.9583 13.9333 92.9417 18.9375 91.0333 25.2416L68.8583 83.8042C65.6917 91.6708 58.1292 91.6708 58.1292 91.6708Z" fill="#002647"/>
</svg>
