<svg width="100" height="100" viewBox="0 0 100 100" fill="none" xmlns="http://www.w3.org/2000/svg">
<path d="M47.8959 11.3081C48.7566 9.56414 51.2434 9.56414 52.1041 11.3081L63.2458 33.8836C63.5876 34.5761 64.2482 35.0561 65.0125 35.1672L89.926 38.7873C91.8506 39.067 92.619 41.4321 91.2264 42.7895L73.1988 60.3621C72.6458 60.9012 72.3934 61.6778 72.524 62.439L76.7797 87.2519C77.1085 89.1687 75.0966 90.6304 73.3752 89.7254L51.0919 78.0103C50.4083 77.6509 49.5917 77.6509 48.9081 78.0103L26.6248 89.7254C24.9034 90.6304 22.8915 89.1687 23.2203 87.2519L27.476 62.439C27.6066 61.6778 27.3542 60.9012 26.8012 60.3621L8.77358 42.7895C7.38096 41.4321 8.14943 39.067 10.074 38.7873L34.9875 35.1672C35.7518 35.0561 36.4124 34.5761 36.7542 33.8836L47.8959 11.3081Z" stroke="#002647" stroke-width="7.83333" stroke-linejoin="round"/>
</svg>
